<svg xmlns="http://www.w3.org/2000/svg" xmlns:xlink="http://www.w3.org/1999/xlink" width="500" zoomAndPan="magnify" viewBox="0 0 375 374.999991" height="500" preserveAspectRatio="xMidYMid meet" version="1.0"><defs><clipPath id="dedf52960a"><path d="M 41 116.226562 L 57 116.226562 L 57 132 L 41 132 Z M 41 116.226562 " clip-rule="nonzero"/></clipPath><clipPath id="619887d496"><path d="M 30 127 L 162 127 L 162 258.726562 L 30 258.726562 Z M 30 127 " clip-rule="nonzero"/></clipPath></defs><path fill="#40b93c" d="M 17.207031 137.171875 L 26.207031 137.171875 L 26.207031 128.195312 L 17.207031 128.195312 L 17.207031 137.171875 " fill-opacity="1" fill-rule="nonzero"/><path fill="#40b93c" d="M 0 129.484375 L 7.425781 129.484375 L 7.425781 122.082031 L 0 122.082031 L 0 129.484375 " fill-opacity="1" fill-rule="nonzero"/><g clip-path="url(#dedf52960a)"><path fill="#40b93c" d="M 41.203125 131.1875 L 56.199219 131.1875 L 56.199219 116.226562 L 41.203125 116.226562 L 41.203125 131.1875 " fill-opacity="1" fill-rule="nonzero"/></g><path fill="#40b93c" d="M 14.210938 169.335938 L 29.207031 169.335938 L 29.207031 154.375 L 14.210938 154.375 L 14.210938 169.335938 " fill-opacity="1" fill-rule="nonzero"/><path fill="#40b93c" d="M 3.710938 154.375 L 14.210938 154.375 L 14.210938 143.902344 L 3.710938 143.902344 L 3.710938 154.375 " fill-opacity="1" fill-rule="nonzero"/><g clip-path="url(#619887d496)"><path fill="#40b93c" d="M 48.015625 207.777344 C 48.015625 207.777344 74.339844 204.863281 84.183594 237.40625 C 79.113281 236.324219 67.742188 232.300781 56.890625 217.40625 C 56.890625 217.40625 66.035156 236.621094 84.980469 240.261719 C 46.929688 246.414062 48.015625 207.777344 48.015625 207.777344 Z M 76.066406 169.335938 L 61.070312 169.335938 L 61.070312 154.375 L 76.066406 154.375 Z M 128.554688 205.683594 C 128.554688 205.683594 136.617188 230.851562 106.585938 246.910156 C 106.644531 241.738281 108.351562 229.820312 120.84375 216.265625 C 120.84375 216.265625 103.769531 229.007812 103.933594 248.253906 C 90.371094 212.261719 128.554688 205.683594 128.554688 205.683594 Z M 30.707031 193.238281 C 30.707031 229.40625 60.097656 258.726562 96.351562 258.726562 C 97.132812 258.726562 97.910156 258.707031 98.679688 258.683594 C 86.578125 243.476562 82.308594 223.6875 86.507812 205.203125 C 76.875 163.007812 124.101562 152.707031 124.101562 152.707031 C 124.101562 152.707031 137.671875 189.386719 94.328125 215.085938 C 94.078125 207.433594 95.816406 189.707031 113.394531 168.851562 C 113.394531 168.851562 91.59375 186.175781 90.53125 211.617188 C 89.835938 228.34375 96.46875 245.046875 109.078125 257.492188 C 139.242188 251.582031 162 225.0625 162 193.238281 C 162 157.070312 132.609375 127.75 96.351562 127.75 C 83.367188 127.75 71.261719 131.515625 61.070312 138.007812 L 61.070312 148.015625 L 48.875 148.015625 C 48.816406 148.078125 48.757812 148.136719 48.699219 148.195312 L 48.699219 148.015625 L 46.078125 148.015625 L 46.078125 141.285156 L 33.703125 141.285156 L 33.703125 154.375 L 48.699219 154.375 L 48.699219 169.335938 L 35.222656 169.335938 C 32.308594 176.742188 30.707031 184.800781 30.707031 193.238281 " fill-opacity="1" fill-rule="nonzero"/></g><path fill="#000000" d="M 187.101562 175.480469 L 187.101562 151.699219 L 203.414062 151.699219 L 203.414062 157.386719 L 193.632812 157.386719 L 193.632812 161.339844 L 201.601562 161.339844 L 201.601562 166.636719 L 193.632812 166.636719 L 193.632812 175.480469 Z M 187.101562 175.480469 " fill-opacity="1" fill-rule="nonzero"/><path fill="#000000" d="M 203.511719 175.480469 L 212.386719 151.699219 L 217.683594 151.699219 L 226.527344 175.480469 L 219.621094 175.480469 L 218.183594 170.824219 L 211.855469 170.824219 L 210.449219 175.480469 Z M 215.027344 158.496094 L 212.824219 166.464844 L 217.136719 166.464844 Z M 215.027344 158.496094 " fill-opacity="1" fill-rule="nonzero"/><path fill="#000000" d="M 228.300781 175.480469 L 228.300781 151.699219 L 239.222656 151.699219 C 240.378906 151.699219 241.445312 151.941406 242.425781 152.417969 C 243.414062 152.898438 244.257812 153.523438 244.957031 154.292969 C 245.664062 155.066406 246.214844 155.949219 246.613281 156.949219 C 247.019531 157.941406 247.222656 158.933594 247.222656 159.933594 C 247.222656 161.320312 246.917969 162.613281 246.316406 163.808594 C 245.710938 165.007812 244.871094 165.980469 243.800781 166.730469 L 249.160156 175.480469 L 241.800781 175.480469 L 237.269531 168.183594 L 234.832031 168.183594 L 234.832031 175.480469 Z M 234.832031 162.480469 L 238.957031 162.480469 C 239.351562 162.480469 239.722656 162.257812 240.066406 161.808594 C 240.417969 161.363281 240.597656 160.738281 240.597656 159.933594 C 240.597656 159.113281 240.394531 158.480469 239.988281 158.042969 C 239.582031 157.605469 239.179688 157.386719 238.785156 157.386719 L 234.832031 157.386719 Z M 234.832031 162.480469 " fill-opacity="1" fill-rule="nonzero"/><path fill="#000000" d="M 269.257812 175.480469 L 269.257812 162.949219 L 265.273438 171.761719 L 261.789062 171.761719 L 257.804688 162.949219 L 257.804688 175.480469 L 251.273438 175.480469 L 251.273438 151.699219 L 258.398438 151.699219 L 263.523438 162.886719 L 268.695312 151.699219 L 275.789062 151.699219 L 275.789062 175.480469 Z M 269.257812 175.480469 " fill-opacity="1" fill-rule="nonzero"/><path fill="#000000" d="M 187.101562 221.367188 L 187.101562 197.585938 L 203.414062 197.585938 L 203.414062 203.273438 L 193.632812 203.273438 L 193.632812 207.226562 L 201.601562 207.226562 L 201.601562 212.523438 L 193.632812 212.523438 L 193.632812 221.367188 Z M 187.101562 221.367188 " fill-opacity="1" fill-rule="nonzero"/><path fill="#000000" d="M 215.902344 221.570312 C 214.203125 221.570312 212.65625 221.226562 211.261719 220.539062 C 209.863281 219.84375 208.667969 218.929688 207.667969 217.804688 C 206.675781 216.671875 205.90625 215.378906 205.355469 213.929688 C 204.8125 212.484375 204.542969 210.988281 204.542969 209.445312 C 204.542969 207.882812 204.828125 206.378906 205.402344 204.929688 C 205.972656 203.472656 206.769531 202.191406 207.792969 201.085938 C 208.824219 199.984375 210.035156 199.101562 211.433594 198.445312 C 212.828125 197.78125 214.363281 197.445312 216.042969 197.445312 C 217.738281 197.445312 219.285156 197.796875 220.683594 198.492188 C 222.078125 199.179688 223.269531 200.097656 224.261719 201.242188 C 225.25 202.378906 226.011719 203.675781 226.542969 205.132812 C 227.082031 206.582031 227.355469 208.0625 227.355469 209.570312 C 227.355469 211.132812 227.066406 212.640625 226.496094 214.085938 C 225.933594 215.523438 225.144531 216.796875 224.136719 217.898438 C 223.136719 219.003906 221.933594 219.894531 220.527344 220.570312 C 219.121094 221.238281 217.578125 221.570312 215.902344 221.570312 Z M 211.183594 209.507812 C 211.183594 210.3125 211.277344 211.085938 211.464844 211.835938 C 211.652344 212.585938 211.941406 213.253906 212.339844 213.835938 C 212.746094 214.410156 213.25 214.878906 213.855469 215.242188 C 214.457031 215.597656 215.160156 215.773438 215.964844 215.773438 C 216.796875 215.773438 217.515625 215.59375 218.121094 215.226562 C 218.722656 214.851562 219.214844 214.375 219.589844 213.789062 C 219.964844 213.195312 220.246094 212.519531 220.433594 211.757812 C 220.628906 211 220.730469 210.226562 220.730469 209.445312 C 220.730469 208.644531 220.625 207.867188 220.417969 207.117188 C 220.21875 206.367188 219.921875 205.710938 219.527344 205.148438 C 219.140625 204.578125 218.644531 204.117188 218.042969 203.773438 C 217.4375 203.421875 216.734375 203.242188 215.933594 203.242188 C 215.109375 203.242188 214.402344 203.425781 213.808594 203.789062 C 213.214844 204.144531 212.71875 204.617188 212.324219 205.210938 C 211.9375 205.796875 211.652344 206.460938 211.464844 207.210938 C 211.277344 207.960938 211.183594 208.726562 211.183594 209.507812 Z M 211.183594 209.507812 " fill-opacity="1" fill-rule="nonzero"/><path fill="#000000" d="M 230.175781 221.367188 L 230.175781 197.585938 L 241.097656 197.585938 C 242.253906 197.585938 243.320312 197.828125 244.300781 198.304688 C 245.289062 198.785156 246.132812 199.410156 246.832031 200.179688 C 247.539062 200.953125 248.089844 201.835938 248.488281 202.835938 C 248.894531 203.828125 249.097656 204.820312 249.097656 205.820312 C 249.097656 207.207031 248.792969 208.5 248.191406 209.695312 C 247.585938 210.894531 246.746094 211.867188 245.675781 212.617188 L 251.035156 221.367188 L 243.675781 221.367188 L 239.144531 214.070312 L 236.707031 214.070312 L 236.707031 221.367188 Z M 236.707031 208.367188 L 240.832031 208.367188 C 241.226562 208.367188 241.597656 208.144531 241.941406 207.695312 C 242.292969 207.25 242.472656 206.625 242.472656 205.820312 C 242.472656 205 242.269531 204.367188 241.863281 203.929688 C 241.457031 203.492188 241.054688 203.273438 240.660156 203.273438 L 236.707031 203.273438 Z M 236.707031 208.367188 " fill-opacity="1" fill-rule="nonzero"/><path fill="#000000" d="M 260.746094 197.585938 L 266.746094 197.585938 L 268.824219 204.914062 L 270.933594 197.585938 L 276.933594 197.585938 L 273.011719 208.945312 L 274.730469 213.898438 L 279.855469 197.585938 L 286.949219 197.585938 L 277.636719 221.367188 L 272.214844 221.367188 L 268.824219 212.851562 L 265.480469 221.367188 L 260.042969 221.367188 L 250.730469 197.585938 L 257.808594 197.585938 L 262.964844 213.898438 L 264.605469 208.945312 Z M 260.746094 197.585938 " fill-opacity="1" fill-rule="nonzero"/><path fill="#000000" d="M 286.308594 221.367188 L 295.183594 197.585938 L 300.480469 197.585938 L 309.324219 221.367188 L 302.417969 221.367188 L 300.980469 216.710938 L 294.652344 216.710938 L 293.246094 221.367188 Z M 297.824219 204.382812 L 295.621094 212.351562 L 299.933594 212.351562 Z M 297.824219 204.382812 " fill-opacity="1" fill-rule="nonzero"/><path fill="#000000" d="M 311.09375 221.367188 L 311.09375 197.585938 L 322.015625 197.585938 C 323.171875 197.585938 324.238281 197.828125 325.21875 198.304688 C 326.207031 198.785156 327.050781 199.410156 327.75 200.179688 C 328.457031 200.953125 329.007812 201.835938 329.40625 202.835938 C 329.8125 203.828125 330.015625 204.820312 330.015625 205.820312 C 330.015625 207.207031 329.710938 208.5 329.109375 209.695312 C 328.503906 210.894531 327.664062 211.867188 326.59375 212.617188 L 331.953125 221.367188 L 324.59375 221.367188 L 320.0625 214.070312 L 317.625 214.070312 L 317.625 221.367188 Z M 317.625 208.367188 L 321.75 208.367188 C 322.144531 208.367188 322.515625 208.144531 322.859375 207.695312 C 323.210938 207.25 323.390625 206.625 323.390625 205.820312 C 323.390625 205 323.1875 204.367188 322.78125 203.929688 C 322.375 203.492188 321.972656 203.273438 321.578125 203.273438 L 317.625 203.273438 Z M 317.625 208.367188 " fill-opacity="1" fill-rule="nonzero"/><path fill="#000000" d="M 334.070312 221.367188 L 334.070312 197.585938 L 343.210938 197.585938 C 345.179688 197.585938 346.90625 197.898438 348.398438 198.523438 C 349.898438 199.148438 351.148438 200 352.148438 201.070312 C 353.15625 202.144531 353.917969 203.398438 354.429688 204.835938 C 354.949219 206.273438 355.210938 207.8125 355.210938 209.445312 C 355.210938 211.25 354.921875 212.882812 354.351562 214.351562 C 353.777344 215.8125 352.964844 217.0625 351.914062 218.101562 C 350.871094 219.144531 349.609375 219.953125 348.132812 220.523438 C 346.664062 221.085938 345.023438 221.367188 343.210938 221.367188 Z M 348.570312 209.445312 C 348.570312 208.53125 348.445312 207.691406 348.195312 206.929688 C 347.953125 206.171875 347.605469 205.523438 347.148438 204.992188 C 346.6875 204.453125 346.121094 204.03125 345.445312 203.726562 C 344.777344 203.425781 344.03125 203.273438 343.210938 203.273438 L 340.601562 203.273438 L 340.601562 215.679688 L 343.210938 215.679688 C 344.0625 215.679688 344.824219 215.523438 345.492188 215.210938 C 346.15625 214.890625 346.71875 214.453125 347.179688 213.898438 C 347.636719 213.335938 347.980469 212.675781 348.210938 211.914062 C 348.449219 211.15625 348.570312 210.332031 348.570312 209.445312 Z M 348.570312 209.445312 " fill-opacity="1" fill-rule="nonzero"/></svg>